<svg width="25" height="25" viewBox="0 0 25 25" fill="none" xmlns="http://www.w3.org/2000/svg">
<path d="M0.82749 15.6779C1.55249 15.4121 2.30166 15.2792 3.09916 15.2792C4.71832 15.2792 6.13207 15.7867 7.34041 16.8017L3.54624 20.5958C2.28712 19.178 1.35853 17.4983 0.82749 15.6779ZM16.8017 9.84167C19.1821 11.6179 21.7558 12.0529 24.5108 11.1467C24.5471 11.4004 24.5833 11.8596 24.5833 12.5C24.5833 13.7446 24.2812 15.1342 23.7133 16.6688C23.1454 18.1913 22.4446 19.4238 21.6229 20.3542L13.9742 12.7296L16.8017 9.84167ZM8.59707 18.1067C9.87791 19.9554 10.1437 21.9733 9.38249 24.1725C7.66666 23.6771 6.13207 22.9038 4.85124 21.8404L8.59707 18.1067ZM12.7296 13.9742L20.3542 21.6229C17.7321 23.9188 14.6508 24.8854 11.1467 24.5108C11.4004 23.7133 11.5333 22.8433 11.5333 21.9008C11.5333 21.1517 11.3642 20.2696 11.0258 19.2667C10.6875 18.2638 10.2887 17.4421 9.84166 16.8017L12.7296 13.9742ZM8.64541 15.5208C7.54408 14.5363 6.19438 13.8719 4.74249 13.5996C3.26832 13.3217 1.85457 13.4063 0.489156 13.8654C0.452906 13.5996 0.416656 13.1404 0.416656 12.5C0.416656 11.2554 0.71874 9.86584 1.28666 8.33125C1.85457 6.80875 2.55541 5.57625 3.37707 4.64583L11.4246 12.7296L8.64541 15.5208ZM16.8017 7.34042C15.1825 5.34667 14.8079 3.17167 15.6779 0.827501C16.4271 1.02083 17.285 1.38333 18.2517 1.93917C19.2062 2.48292 19.9917 3.02667 20.5958 3.54625L16.8017 7.34042ZM24.1725 9.33417C23.4475 9.58792 22.6983 9.72083 21.9008 9.72083C20.5837 9.72083 19.315 9.33417 18.1067 8.53667L21.8404 4.85125C22.9037 6.18042 23.6771 7.66667 24.1725 9.33417ZM12.7296 11.4246L4.64582 3.37708C7.26791 1.08125 10.3492 0.114585 13.8654 0.489168C13.5996 1.28667 13.4667 2.15667 13.4667 3.09917C13.4667 3.96917 13.66 4.94792 14.0587 6.0475C14.4575 7.135 14.9167 8.005 15.5208 8.64542L12.7296 11.4246Z" fill="black"/>
</svg>
