<svg width="25" height="25" viewBox="0 0 25 25" fill="none" xmlns="http://www.w3.org/2000/svg">
<path d="M7.425 0.416672H17.575C21.4417 0.416672 24.5833 3.55834 24.5833 7.425V17.575C24.5833 19.4337 23.845 21.2163 22.5306 22.5306C21.2163 23.845 19.4337 24.5833 17.575 24.5833H7.425C3.55834 24.5833 0.416672 21.4417 0.416672 17.575V7.425C0.416672 5.56628 1.15505 3.78368 2.46937 2.46937C3.78368 1.15505 5.56628 0.416672 7.425 0.416672ZM7.18334 2.83334C6.02965 2.83334 4.92321 3.29164 4.10742 4.10742C3.29164 4.92321 2.83334 6.02965 2.83334 7.18334V17.8167C2.83334 20.2213 4.77875 22.1667 7.18334 22.1667H17.8167C18.9704 22.1667 20.0768 21.7084 20.8926 20.8926C21.7084 20.0768 22.1667 18.9704 22.1667 17.8167V7.18334C22.1667 4.77875 20.2213 2.83334 17.8167 2.83334H7.18334ZM18.8438 4.64584C19.2443 4.64584 19.6285 4.80497 19.9118 5.08823C20.195 5.37149 20.3542 5.75567 20.3542 6.15625C20.3542 6.55684 20.195 6.94102 19.9118 7.22428C19.6285 7.50754 19.2443 7.66667 18.8438 7.66667C18.4432 7.66667 18.059 7.50754 17.7757 7.22428C17.4925 6.94102 17.3333 6.55684 17.3333 6.15625C17.3333 5.75567 17.4925 5.37149 17.7757 5.08823C18.059 4.80497 18.4432 4.64584 18.8438 4.64584ZM12.5 6.45834C14.1024 6.45834 15.6391 7.09487 16.7721 8.2279C17.9051 9.36093 18.5417 10.8977 18.5417 12.5C18.5417 14.1024 17.9051 15.6391 16.7721 16.7721C15.6391 17.9051 14.1024 18.5417 12.5 18.5417C10.8977 18.5417 9.36093 17.9051 8.2279 16.7721C7.09487 15.6391 6.45834 14.1024 6.45834 12.5C6.45834 10.8977 7.09487 9.36093 8.2279 8.2279C9.36093 7.09487 10.8977 6.45834 12.5 6.45834ZM12.5 8.875C11.5386 8.875 10.6166 9.25692 9.93674 9.93674C9.25692 10.6166 8.875 11.5386 8.875 12.5C8.875 13.4614 9.25692 14.3834 9.93674 15.0633C10.6166 15.7431 11.5386 16.125 12.5 16.125C13.4614 16.125 14.3834 15.7431 15.0633 15.0633C15.7431 14.3834 16.125 13.4614 16.125 12.5C16.125 11.5386 15.7431 10.6166 15.0633 9.93674C14.3834 9.25692 13.4614 8.875 12.5 8.875Z" fill="black"/>
</svg>
