<svg width="23" height="23" viewBox="0 0 23 23" fill="none" xmlns="http://www.w3.org/2000/svg">
<path d="M19.9583 0.625C20.5993 0.625 21.214 0.879612 21.6672 1.33283C22.1204 1.78604 22.375 2.40073 22.375 3.04167V19.9583C22.375 20.5993 22.1204 21.214 21.6672 21.6672C21.214 22.1204 20.5993 22.375 19.9583 22.375H3.04167C2.40073 22.375 1.78604 22.1204 1.33283 21.6672C0.879612 21.214 0.625 20.5993 0.625 19.9583V3.04167C0.625 2.40073 0.879612 1.78604 1.33283 1.33283C1.78604 0.879612 2.40073 0.625 3.04167 0.625H19.9583ZM19.3542 19.3542V12.95C19.3542 11.9053 18.9391 10.9033 18.2004 10.1646C17.4617 9.42585 16.4597 9.01083 15.415 9.01083C14.3879 9.01083 13.1917 9.63917 12.6117 10.5817V9.24042H9.24042V19.3542H12.6117V13.3971C12.6117 12.4667 13.3608 11.7054 14.2913 11.7054C14.7399 11.7054 15.1702 11.8836 15.4874 12.2009C15.8047 12.5181 15.9829 12.9484 15.9829 13.3971V19.3542H19.3542ZM5.31333 7.34333C5.85172 7.34333 6.36806 7.12946 6.74876 6.74876C7.12946 6.36806 7.34333 5.85172 7.34333 5.31333C7.34333 4.18958 6.43708 3.27125 5.31333 3.27125C4.77174 3.27125 4.25233 3.4864 3.86936 3.86936C3.4864 4.25233 3.27125 4.77174 3.27125 5.31333C3.27125 6.43708 4.18958 7.34333 5.31333 7.34333ZM6.99292 19.3542V9.24042H3.64583V19.3542H6.99292Z" fill="black"/>
</svg>
