<svg width="27" height="22" viewBox="0 0 27 22" fill="none" xmlns="http://www.w3.org/2000/svg">
<path d="M26.1392 3.24999C25.2088 3.67291 24.2058 3.95083 23.1667 4.08374C24.23 3.44333 25.0517 2.42833 25.4383 1.20791C24.4354 1.81208 23.3238 2.235 22.1517 2.47666C21.1971 1.43749 19.8558 0.833328 18.3333 0.833328C15.4938 0.833328 13.1738 3.15333 13.1738 6.01708C13.1738 6.42791 13.2221 6.82666 13.3067 7.20124C9.00501 6.98375 5.17459 4.91749 2.62501 1.78791C2.17792 2.54916 1.92417 3.44333 1.92417 4.38583C1.92417 6.18624 2.83042 7.78124 4.23209 8.68749C3.37417 8.68749 2.57667 8.44583 1.87584 8.08333V8.11958C1.87584 10.6329 3.66417 12.7354 6.03251 13.2067C5.27227 13.4156 4.4738 13.4446 3.70042 13.2912C4.02861 14.3213 4.67136 15.2227 5.53832 15.8685C6.40527 16.5144 7.45284 16.8724 8.53376 16.8921C6.70152 18.3427 4.43027 19.1268 2.09334 19.1154C1.68251 19.1154 1.27167 19.0912 0.86084 19.0429C3.15667 20.5171 5.88751 21.375 8.81167 21.375C18.3333 21.375 23.5654 13.4725 23.5654 6.62124C23.5654 6.39166 23.5654 6.17416 23.5533 5.94458C24.5683 5.21958 25.4383 4.30124 26.1392 3.24999Z" fill="black"/>
</svg>
